<?xml version="1.0" encoding="UTF-8"?>
<svg id="Layer_1" data-name="Layer 1" xmlns="http://www.w3.org/2000/svg" viewBox="0 0 481.78 511.02">
  <defs>
    <style>
      .cls-1 {
        fill: #fff;
      }
    </style>
  </defs>
  <path d="M159.74,180.34C240.11,174.95,266.66,6.58,368.2.18c8.11-.51,24.98-.51,42.89,7.72,51.01,23.44,84.37,101.59,65.2,150.13-33.43,84.64-208.91,34.37-257.37,127.83-33.4,64.41,31.2,124.45-8.58,179.3-35.47,48.92-130.64,61.54-175.01,24.02-31.39-26.55-17.89-61.75-24.02-206.75-5.88-138.98-22.23-200.06,0-209.32,32.43-13.52,77.81,111.97,148.41,107.24Z"/>
  <circle cx="152.95" cy="103.62" r="47.61"/>
  <circle cx="296.92" cy="329.51" r="56.03"/>
  <path class="cls-1" d="M397.4,177.88l-37.17-60.37v60.37h-36.91l-.17-139.02h52.78c30.01,0,51.49,20.27,51.49,45.19,0,17.33-10.44,31.82-24.06,38.03l37.26,55.8h-43.21ZM360.05,99.91l15.09.09c7.85.09,15.01-5.43,15.01-13.97s-7.24-13.97-15.01-13.97h-15.09v27.86Z"/>
  <path class="cls-1" d="M128.83,444.76l-29.98-45.04v45.04h-31.37v-118.44h31.37v44.16l27.48-44.16h36.15l-36.29,57.75,40.78,60.69h-38.13Z"/>
</svg>